<?xml version="1.0" standalone="no"?>
<!DOCTYPE svg PUBLIC "-//W3C//DTD SVG 20010904//EN"
 "http://www.w3.org/TR/2001/REC-SVG-20010904/DTD/svg10.dtd">
<svg version="1.0" xmlns="http://www.w3.org/2000/svg"
 width="1280.000000pt" height="1280.000000pt" viewBox="0 0 1280.000000 1280.000000"
 preserveAspectRatio="xMidYMid meet">
<metadata>
Created by potrace 1.16, written by Peter Selinger 2001-2019
</metadata>
<g transform="translate(0.000000,1280.000000) scale(0.100000,-0.100000)"
fill="#000000" stroke="none">
<path d="M5940 12789 c-873 -68 -1663 -289 -2435 -679 -268 -136 -456 -246
-725 -425 -313 -209 -357 -246 -400 -329 -33 -65 -35 -75 -35 -165 0 -85 3
-102 27 -147 54 -102 156 -157 293 -157 103 -1 136 14 295 133 802 598 1744
972 2755 1094 418 51 910 51 1355 0 1545 -175 2992 -1014 3941 -2284 647 -865
1036 -1893 1124 -2970 17 -204 20 -677 5 -871 -129 -1675 -957 -3182 -2305
-4196 -877 -659 -1917 -1048 -3030 -1133 -179 -14 -627 -14 -815 0 -1661 121
-3184 958 -4197 2305 -662 882 -1052 1929 -1134 3043 -18 245 -7 778 21 1007
97 815 319 1496 747 2298 l58 108 -1 92 c0 109 -19 161 -86 233 -67 73 -106
89 -218 89 -87 0 -101 -3 -160 -32 -36 -17 -79 -47 -97 -65 -38 -41 -175 -295
-287 -535 -331 -708 -528 -1415 -613 -2198 -22 -205 -25 -969 -5 -1165 48
-457 114 -813 218 -1180 258 -904 698 -1716 1328 -2450 116 -135 511 -530 646
-646 973 -835 2127 -1356 3351 -1513 330 -42 396 -46 844 -46 470 0 569 7 940
61 1193 176 2299 686 3245 1498 135 116 530 511 646 646 834 972 1356 2127
1513 3351 42 330 46 397 46 839 0 441 -4 507 -45 835 -143 1123 -611 2227
-1328 3130 -167 210 -270 325 -501 556 -411 410 -776 697 -1251 981 -808 483
-1660 764 -2650 874 -171 19 -896 28 -1080 13z"/>
<path d="M7285 9251 c-52 -26 -235 -206 -1376 -1348 -1064 -1065 -1321 -1328
-1340 -1368 -34 -71 -34 -198 0 -270 35 -74 2642 -2681 2716 -2716 37 -17 72
-25 132 -27 71 -4 89 -1 136 21 162 74 237 266 168 427 -22 49 -152 183 -1210
1243 l-1186 1187 1186 1188 c1325 1326 1233 1224 1234 1372 0 123 -58 220
-172 287 -40 23 -61 28 -138 31 -84 3 -94 2 -150 -27z"/>
</g>
</svg>
