<svg xmlns="http://www.w3.org/2000/svg" width="16" height="16" id="boat">
  <path fill="#e7e5f2" fill-rule="evenodd" d="M7.5 9.303v-7l-4 7zM7.5 9.303v-5l3 5z"></path>
  <path fill="#ccab94" fill-rule="evenodd" d="M1.5 14.403v-3.1h13v.01c0 1.16-.48 2.201-1.25 2.93"></path>
  <path fill-rule="evenodd" d="M1.5 1047.166a.5.5 0 0 0-.5.5v3.1a.5.5 0 1 0 1 0v-2.6h11.898c-.115.81-.435 1.547-.992 2.074a.5.5 0 1 0 .688.727 4.518 4.518 0 0 0 1.406-3.291.5.5 0 0 0 0-.01v-.01a.5.5 0 0 0-.5-.492h-13z" color="#000" font-family="sans-serif" font-weight="400" overflow="visible" style="line-height:normal;text-indent:0;text-align:start;text-decoration-line:none;text-decoration-style:solid;text-decoration-color:#000;text-transform:none;block-progression:tb;white-space:normal;isolation:auto;mix-blend-mode:normal;solid-color:#000;solid-opacity:1" transform="translate(0 -1036.362)"></path>
  <path d="M3.43 1049.666a.5.5 0 0 0-.358.172 1.496 1.496 0 0 1-2.21.072.5.5 0 0 0-.714.703 2.509 2.509 0 0 0 1.788.748c.58 0 1.07-.331 1.515-.695.444.363.935.695 1.516.695a.5.5 0 0 0 .002 0c.581 0 1.07-.331 1.515-.695.445.363.935.695 1.516.695.58 0 1.071-.332 1.516-.695.444.364.934.695 1.515.695a.5.5 0 0 0 .002 0c.581 0 1.072-.332 1.516-.695.444.364.934.695 1.515.695.696 0 1.332-.286 1.788-.748a.5.5 0 0 0-.713-.703c-.276.28-.652.45-1.073.451-.435 0-.849-.189-1.138-.523a.5.5 0 0 0-.756 0 1.51 1.51 0 0 1-1.139.523c-.435 0-.849-.189-1.138-.523a.5.5 0 0 0-.756 0c-.29.334-.704.523-1.139.523-.435 0-.849-.189-1.139-.523a.5.5 0 0 0-.755 0c-.29.334-.703.522-1.137.523a1.51 1.51 0 0 1-1.14-.523.5.5 0 0 0-.4-.172z" color="#000" font-family="sans-serif" font-weight="400" overflow="visible" style="line-height:normal;text-indent:0;text-align:start;text-decoration-line:none;text-decoration-style:solid;text-decoration-color:#000;text-transform:none;block-progression:tb;white-space:normal;isolation:auto;mix-blend-mode:normal;solid-color:#000;solid-opacity:1" transform="translate(0 -1036.362)"></path>
  <path fill-rule="evenodd" d="M7.484 1038.166a.5.5 0 0 0-.418.252l-4 7a.5.5 0 0 0 .434.748h4a.5.5 0 0 0 .5-.5v-7a.5.5 0 0 0-.516-.5zm-.484 2.38v4.62H4.361l2.639-4.62Z" color="#000" font-family="sans-serif" font-weight="400" overflow="visible" style="line-height:normal;text-indent:0;text-align:start;text-decoration-line:none;text-decoration-style:solid;text-decoration-color:#000;text-transform:none;block-progression:tb;white-space:normal;isolation:auto;mix-blend-mode:normal;solid-color:#000;solid-opacity:1" transform="translate(0 -1036.362)"></path>
  <path fill-rule="evenodd" d="M7.465 1040.166a.5.5 0 0 0-.465.5v5a.5.5 0 0 0 .5.5h3a.5.5 0 0 0 .43-.758l-3-5a.5.5 0 0 0-.465-.242Zm.535 2.305 1.617 2.695H8v-2.695z" color="#000" font-family="sans-serif" font-weight="400" overflow="visible" style="line-height:normal;text-indent:0;text-align:start;text-decoration-line:none;text-decoration-style:solid;text-decoration-color:#000;text-transform:none;block-progression:tb;white-space:normal;isolation:auto;mix-blend-mode:normal;solid-color:#000;solid-opacity:1" transform="translate(0 -1036.362)"></path>
  <path fill-rule="evenodd" d="M7 1045.166v3h1v-3H7z" color="#000" font-family="sans-serif" font-weight="400" overflow="visible" style="line-height:normal;text-indent:0;text-align:start;text-decoration-line:none;text-decoration-style:solid;text-decoration-color:#000;text-transform:none;block-progression:tb;white-space:normal;isolation:auto;mix-blend-mode:normal;solid-color:#000;solid-opacity:1" transform="translate(0 -1036.362)"></path>
</svg>
