<svg id="svg" fill="#eae3d3" stroke="#eae3d3" width="200" height="200" version="1.1" viewBox="53 53 694 694" xmlns="http://www.w3.org/2000/svg" stroke-width="0">
    <g id="IconSvg_bgCarrier" stroke-width="0"></g>
    <g id="IconSvg_tracerCarrier" stroke-linecap="round" stroke-linejoin="round" stroke="#CCCCCC" stroke-width="0">
      <path xmlns="http://www.w3.org/2000/svg" d="m400 188.41c-125.21 0-226.71 76.457-226.71 170.77s101.5 170.77 226.71 170.77c10.117-0.011718 20.227-0.53516 30.293-1.5625 30.621 33.93 67.191 61.965 107.91 82.719 1.707 0.85156 3.7695 0.52344 5.1289-0.82422 1.3555-1.3438 1.7031-3.4062 0.86328-5.1211-9.0586-18.77-25.926-57.93-30.984-98.051 67.824-29.512 113.5-84.684 113.5-147.93 0-94.312-101.5-170.77-226.71-170.77z"></path>

      </g>
     <g id="IconSvg_iconCarrier">
      <path xmlns="http://www.w3.org/2000/svg" d="m400 188.41c-125.21 0-226.71 76.457-226.71 170.77s101.5 170.77 226.71 170.77c10.117-0.011718 20.227-0.53516 30.293-1.5625 30.621 33.93 67.191 61.965 107.91 82.719 1.707 0.85156 3.7695 0.52344 5.1289-0.82422 1.3555-1.3438 1.7031-3.4062 0.86328-5.1211-9.0586-18.77-25.926-57.93-30.984-98.051 67.824-29.512 113.5-84.684 113.5-147.93 0-94.312-101.5-170.77-226.71-170.77z"></path>

      </g>
      </svg>