<svg id="svg" fill="#353533" stroke="#353533" width="134" height="134" version="1.1" viewBox="144 144 512 512" xmlns="http://www.w3.org/2000/svg">
    <g id="IconSvg_bgCarrier" stroke-width="0"></g>
    <g id="IconSvg_tracerCarrier" stroke-linecap="round" stroke-linejoin="round" stroke="#CCCCCC" stroke-width="0">
      <g xmlns="http://www.w3.org/2000/svg">
  <path d="m171.71 510.21h32.605c2.3086 9.0664 8.543 16.629 17.008 20.617 8.4609 3.9883 18.262 3.9883 26.727 0 8.4609-3.9883 14.699-11.551 17.004-20.617h206.91c2.3086 9.0664 8.543 16.629 17.008 20.617 8.4609 3.9883 18.262 3.9883 26.727 0 8.4609-3.9883 14.699-11.551 17.008-20.617h103.45v-15.746h-15.746v-188.93c-0.011718-10.438-4.1641-20.441-11.539-27.82-7.3789-7.3789-17.387-11.527-27.82-11.539h-346.37c-10.438 0.011719-20.441 4.1602-27.82 11.539-7.3789 7.3789-11.527 17.383-11.543 27.82v47.23h-15.742c-4.1758 0-8.1797 1.6602-11.133 4.6133s-4.6133 6.957-4.6133 11.133v23.617l15.746-0.003906v-23.613h15.742v58.109l-18.434 9.2188c-3.9336 1.9492-7.2422 4.9609-9.5469 8.6953-2.3086 3.7305-3.5234 8.0352-3.5078 12.426v45.375c0 2.0859 0.83203 4.0898 2.3086 5.5664 1.4766 1.4766 3.4766 2.3047 5.5664 2.3047zm62.977 7.8711c-4.1758 0-8.1797-1.6562-11.133-4.6094-2.9531-2.9531-4.6133-6.957-4.6133-11.133 0-4.1758 1.6602-8.1797 4.6133-11.133 2.9531-2.9531 6.957-4.6133 11.133-4.6133s8.1797 1.6602 11.133 4.6133c2.9492 2.9531 4.6094 6.957 4.6094 11.133 0 4.1758-1.6602 8.1797-4.6094 11.133-2.9531 2.9531-6.957 4.6094-11.133 4.6094zm267.65 0c-4.1758 0-8.1797-1.6562-11.133-4.6094s-4.6133-6.957-4.6133-11.133c0-4.1758 1.6602-8.1797 4.6133-11.133s6.957-4.6133 11.133-4.6133c4.1758 0 8.1797 1.6602 11.133 4.6133s4.6094 6.957 4.6094 11.133c0 4.1758-1.6562 8.1797-4.6094 11.133s-6.957 4.6094-11.133 4.6094zm70.848-23.617h-15.746v-94.461h15.742zm31.488 0h-15.746v-94.461h15.742zm-70.848-212.54h47.23c6.2656 0 12.27 2.4883 16.699 6.918 4.4297 4.4297 6.918 10.434 6.918 16.699v7.8711h-70.848zm0 47.23h70.848v23.617h-70.848zm-62.977-47.23h47.23v31.488h-47.23zm-62.977 0h47.23v31.488h-47.23zm-62.977 0h47.23v31.488h-47.23zm-62.977 0h47.23v31.488h-47.23zm0 47.23h236.16v23.617h-236.16zm-70.848-23.613c0-6.2656 2.4883-12.27 6.918-16.699 4.4258-4.4297 10.434-6.918 16.699-6.918h31.488v31.488h-55.105zm0 23.617h55.105v23.617l-55.105-0.003906zm0 39.359h43.297l19.68 26.234v28.867h-62.977zm-31.488 102.34h15.742v-15.746h-15.484c0.53125-2.2461 2.0312-4.1445 4.0938-5.1797l21.121-10.562h313.02c2.0898 0 4.0898-0.83203 5.5664-2.3047 1.4766-1.4766 2.3047-3.4805 2.3047-5.5664v-39.363c0-2.0859-0.82812-4.0898-2.3047-5.5664-1.4766-1.4766-3.4766-2.3047-5.5664-2.3047h-232.22l-11.809-15.742h330.62v15.742h-55.105c-4.3477 0-7.8711 3.5234-7.8711 7.8711v102.34h-8.8633c-0.31641-1.0664-0.69141-2.1172-1.1172-3.1484-0.17188-0.47266-0.30078-0.96875-0.49609-1.4336v0.003906c-0.75-1.7344-1.6523-3.3945-2.7031-4.9609-0.22656-0.33984-0.51172-0.62891-0.74609-0.96094-0.85938-1.1953-1.793-2.3281-2.8008-3.3984-0.46484-0.47266-0.96875-0.89062-1.457-1.3398-0.89453-0.84375-1.8398-1.6328-2.8281-2.3633-0.58203-0.41797-1.1797-0.78906-1.7852-1.1797-1.0156-0.63281-2.0664-1.207-3.1484-1.7148-0.64453-0.30859-1.2812-0.61328-1.9531-0.88281-1.2148-0.46094-2.4609-0.84766-3.7227-1.1562-0.61328-0.15625-1.1953-0.35547-1.8203-0.47266-3.8945-0.79688-7.9102-0.79688-11.809 0-0.62109 0.11719-1.2031 0.31641-1.8203 0.47266h0.003906c-1.2656 0.30859-2.5078 0.69531-3.7227 1.1562-0.66797 0.26953-1.3086 0.57422-1.9531 0.88281-1.082 0.50781-2.1367 1.082-3.1484 1.7148-0.60547 0.37891-1.2031 0.78906-1.7852 1.1797h-0.003906c-0.98828 0.73047-1.9297 1.5195-2.8242 2.3633-0.48828 0.44922-0.99219 0.86719-1.457 1.3398-1.0078 1.0703-1.9453 2.2031-2.8008 3.3984-0.23438 0.33203-0.51953 0.62109-0.74609 0.96094h-0.003906c-1.0469 1.5664-1.9531 3.2266-2.6992 4.9609-0.19531 0.46484-0.32422 0.96094-0.49609 1.4336v-0.003906c-0.42969 1.0312-0.80078 2.082-1.1172 3.1484h-206.69c-0.31641-1.0664-0.69141-2.1172-1.1211-3.1484-0.17188-0.47266-0.30078-0.96875-0.49609-1.4336l0.003906 0.003906c-0.75-1.7344-1.6523-3.3945-2.7031-4.9609-0.22656-0.33984-0.51172-0.62891-0.78906-0.96094h0.003906c-0.85938-1.1953-1.793-2.3281-2.8047-3.3984-0.46484-0.47266-0.96875-0.89062-1.457-1.3398h0.003907c-0.89453-0.84375-1.8398-1.6328-2.8281-2.3633-0.58203-0.41797-1.1797-0.78906-1.7852-1.1797-1.0156-0.63281-2.0664-1.207-3.1484-1.7148-0.64453-0.30859-1.2812-0.61328-1.9531-0.88281-1.2188-0.46094-2.4609-0.84766-3.7227-1.1562-0.61328-0.15625-1.1953-0.35547-1.8203-0.47266-3.8945-0.79688-7.9141-0.79688-11.809 0-0.62109 0.11719-1.2031 0.31641-1.8203 0.47266h0.003906c-1.2656 0.30859-2.5078 0.69531-3.7266 1.1562-0.66797 0.26953-1.3086 0.57422-1.9531 0.88281h0.003906c-1.0859 0.50781-2.1367 1.082-3.1484 1.7148-0.60547 0.37891-1.2031 0.78906-1.7852 1.1797h-0.003906c-0.98828 0.73047-1.9297 1.5195-2.8242 2.3633-0.48828 0.44922-0.99219 0.86719-1.457 1.3398-1.0078 1.0703-1.9453 2.2031-2.8047 3.3984-0.23438 0.33203-0.51953 0.62109-0.74609 0.96094-1.0469 1.5664-1.9531 3.2266-2.6992 4.9609-0.19531 0.46484-0.32422 0.96094-0.49609 1.4336v-0.003906c-0.42969 1.0312-0.80469 2.082-1.1172 3.1484h-24.602zm110.21-47.23v-23.617h39.359v23.617zm55.105 0v-23.617h47.23v23.617zm62.977 0v-23.617h47.23v23.617zm62.977 0v-23.617h39.359v23.617z"></path>
  <path d="m281.92 455.1h188.93v15.742h-188.93z"></path>
 </g>

      </g>
     <g id="IconSvg_iconCarrier">
      <g xmlns="http://www.w3.org/2000/svg">
  <path d="m171.71 510.21h32.605c2.3086 9.0664 8.543 16.629 17.008 20.617 8.4609 3.9883 18.262 3.9883 26.727 0 8.4609-3.9883 14.699-11.551 17.004-20.617h206.91c2.3086 9.0664 8.543 16.629 17.008 20.617 8.4609 3.9883 18.262 3.9883 26.727 0 8.4609-3.9883 14.699-11.551 17.008-20.617h103.45v-15.746h-15.746v-188.93c-0.011718-10.438-4.1641-20.441-11.539-27.82-7.3789-7.3789-17.387-11.527-27.82-11.539h-346.37c-10.438 0.011719-20.441 4.1602-27.82 11.539-7.3789 7.3789-11.527 17.383-11.543 27.82v47.23h-15.742c-4.1758 0-8.1797 1.6602-11.133 4.6133s-4.6133 6.957-4.6133 11.133v23.617l15.746-0.003906v-23.613h15.742v58.109l-18.434 9.2188c-3.9336 1.9492-7.2422 4.9609-9.5469 8.6953-2.3086 3.7305-3.5234 8.0352-3.5078 12.426v45.375c0 2.0859 0.83203 4.0898 2.3086 5.5664 1.4766 1.4766 3.4766 2.3047 5.5664 2.3047zm62.977 7.8711c-4.1758 0-8.1797-1.6562-11.133-4.6094-2.9531-2.9531-4.6133-6.957-4.6133-11.133 0-4.1758 1.6602-8.1797 4.6133-11.133 2.9531-2.9531 6.957-4.6133 11.133-4.6133s8.1797 1.6602 11.133 4.6133c2.9492 2.9531 4.6094 6.957 4.6094 11.133 0 4.1758-1.6602 8.1797-4.6094 11.133-2.9531 2.9531-6.957 4.6094-11.133 4.6094zm267.65 0c-4.1758 0-8.1797-1.6562-11.133-4.6094s-4.6133-6.957-4.6133-11.133c0-4.1758 1.6602-8.1797 4.6133-11.133s6.957-4.6133 11.133-4.6133c4.1758 0 8.1797 1.6602 11.133 4.6133s4.6094 6.957 4.6094 11.133c0 4.1758-1.6562 8.1797-4.6094 11.133s-6.957 4.6094-11.133 4.6094zm70.848-23.617h-15.746v-94.461h15.742zm31.488 0h-15.746v-94.461h15.742zm-70.848-212.54h47.23c6.2656 0 12.27 2.4883 16.699 6.918 4.4297 4.4297 6.918 10.434 6.918 16.699v7.8711h-70.848zm0 47.23h70.848v23.617h-70.848zm-62.977-47.23h47.23v31.488h-47.23zm-62.977 0h47.23v31.488h-47.23zm-62.977 0h47.23v31.488h-47.23zm-62.977 0h47.23v31.488h-47.23zm0 47.23h236.16v23.617h-236.16zm-70.848-23.613c0-6.2656 2.4883-12.27 6.918-16.699 4.4258-4.4297 10.434-6.918 16.699-6.918h31.488v31.488h-55.105zm0 23.617h55.105v23.617l-55.105-0.003906zm0 39.359h43.297l19.68 26.234v28.867h-62.977zm-31.488 102.34h15.742v-15.746h-15.484c0.53125-2.2461 2.0312-4.1445 4.0938-5.1797l21.121-10.562h313.02c2.0898 0 4.0898-0.83203 5.5664-2.3047 1.4766-1.4766 2.3047-3.4805 2.3047-5.5664v-39.363c0-2.0859-0.82812-4.0898-2.3047-5.5664-1.4766-1.4766-3.4766-2.3047-5.5664-2.3047h-232.22l-11.809-15.742h330.62v15.742h-55.105c-4.3477 0-7.8711 3.5234-7.8711 7.8711v102.34h-8.8633c-0.31641-1.0664-0.69141-2.1172-1.1172-3.1484-0.17188-0.47266-0.30078-0.96875-0.49609-1.4336v0.003906c-0.75-1.7344-1.6523-3.3945-2.7031-4.9609-0.22656-0.33984-0.51172-0.62891-0.74609-0.96094-0.85938-1.1953-1.793-2.3281-2.8008-3.3984-0.46484-0.47266-0.96875-0.89062-1.457-1.3398-0.89453-0.84375-1.8398-1.6328-2.8281-2.3633-0.58203-0.41797-1.1797-0.78906-1.7852-1.1797-1.0156-0.63281-2.0664-1.207-3.1484-1.7148-0.64453-0.30859-1.2812-0.61328-1.9531-0.88281-1.2148-0.46094-2.4609-0.84766-3.7227-1.1562-0.61328-0.15625-1.1953-0.35547-1.8203-0.47266-3.8945-0.79688-7.9102-0.79688-11.809 0-0.62109 0.11719-1.2031 0.31641-1.8203 0.47266h0.003906c-1.2656 0.30859-2.5078 0.69531-3.7227 1.1562-0.66797 0.26953-1.3086 0.57422-1.9531 0.88281-1.082 0.50781-2.1367 1.082-3.1484 1.7148-0.60547 0.37891-1.2031 0.78906-1.7852 1.1797h-0.003906c-0.98828 0.73047-1.9297 1.5195-2.8242 2.3633-0.48828 0.44922-0.99219 0.86719-1.457 1.3398-1.0078 1.0703-1.9453 2.2031-2.8008 3.3984-0.23438 0.33203-0.51953 0.62109-0.74609 0.96094h-0.003906c-1.0469 1.5664-1.9531 3.2266-2.6992 4.9609-0.19531 0.46484-0.32422 0.96094-0.49609 1.4336v-0.003906c-0.42969 1.0312-0.80078 2.082-1.1172 3.1484h-206.69c-0.31641-1.0664-0.69141-2.1172-1.1211-3.1484-0.17188-0.47266-0.30078-0.96875-0.49609-1.4336l0.003906 0.003906c-0.75-1.7344-1.6523-3.3945-2.7031-4.9609-0.22656-0.33984-0.51172-0.62891-0.78906-0.96094h0.003906c-0.85938-1.1953-1.793-2.3281-2.8047-3.3984-0.46484-0.47266-0.96875-0.89062-1.457-1.3398h0.003907c-0.89453-0.84375-1.8398-1.6328-2.8281-2.3633-0.58203-0.41797-1.1797-0.78906-1.7852-1.1797-1.0156-0.63281-2.0664-1.207-3.1484-1.7148-0.64453-0.30859-1.2812-0.61328-1.9531-0.88281-1.2188-0.46094-2.4609-0.84766-3.7227-1.1562-0.61328-0.15625-1.1953-0.35547-1.8203-0.47266-3.8945-0.79688-7.9141-0.79688-11.809 0-0.62109 0.11719-1.2031 0.31641-1.8203 0.47266h0.003906c-1.2656 0.30859-2.5078 0.69531-3.7266 1.1562-0.66797 0.26953-1.3086 0.57422-1.9531 0.88281h0.003906c-1.0859 0.50781-2.1367 1.082-3.1484 1.7148-0.60547 0.37891-1.2031 0.78906-1.7852 1.1797h-0.003906c-0.98828 0.73047-1.9297 1.5195-2.8242 2.3633-0.48828 0.44922-0.99219 0.86719-1.457 1.3398-1.0078 1.0703-1.9453 2.2031-2.8047 3.3984-0.23438 0.33203-0.51953 0.62109-0.74609 0.96094-1.0469 1.5664-1.9531 3.2266-2.6992 4.9609-0.19531 0.46484-0.32422 0.96094-0.49609 1.4336v-0.003906c-0.42969 1.0312-0.80469 2.082-1.1172 3.1484h-24.602zm110.21-47.23v-23.617h39.359v23.617zm55.105 0v-23.617h47.23v23.617zm62.977 0v-23.617h47.23v23.617zm62.977 0v-23.617h39.359v23.617z"></path>
  <path d="m281.92 455.1h188.93v15.742h-188.93z"></path>
 </g>

      </g>
      </svg>