<svg xmlns="http://www.w3.org/2000/svg" viewBox="0 0 64 64" id="magic-ball">
  <path fill="#a381bd" d="M32,62H62V54a6,6,0,0,0-2.4-4.8h0A6,6,0,0,0,56,48H8a6,6,0,0,0-3.6,1.2h0A6,6,0,0,0,2,54v8Z"></path>
  <circle cx="32" cy="22" r="20" fill="#c2d3dc"></circle>
  <polygon fill="#7a618e" points="62 57 55 57 55 53 53 53 53 57 47 57 47 53 45 53 45 57 38 57 38 53 36 53 36 57 32 57 28 57 28 53 26 53 26 57 19 57 19 53 17 53 17 57 11 57 11 53 9 53 9 57 2 57 2 59 9 59 9 62 11 62 11 59 17 59 17 62 19 62 19 59 26 59 26 62 28 62 28 59 32 59 36 59 36 62 38 62 38 59 45 59 45 62 47 62 47 59 53 59 53 62 55 62 55 59 62 59 62 57"></polygon>
  <path fill="#deeaf0" d="M47,48l-1.488-3.719a3.626,3.626,0,0,0-1.746-1.9h0A3.627,3.627,0,0,0,42.143,42H21.857a3.627,3.627,0,0,0-1.623.383h0a3.626,3.626,0,0,0-1.746,1.9L17,48Z"></path>
  <path fill="#fff" d="M32,2A19.882,19.882,0,0,0,19.886,6.113,22,22,0,0,0,39,39a22.161,22.161,0,0,0,4.15-.4A20,20,0,0,0,32,2Z" opacity=".2"></path>
  <circle cx="43.015" cy="14.951" r="2" fill="#deeaf0"></circle>
  <path fill="#deeaf0" d="M39.011,35.75c5.6-3.091,6.772-9.365,6.984-12.663a1.969,1.969,0,0,0-1.984-2.136h0a2,2,0,0,0-1.984,1.862,13.529,13.529,0,0,1-5.289,9.592,1.98,1.98,0,0,0-.723,1.553h0A2.033,2.033,0,0,0,39.011,35.75Z"></path>
  <path fill="#fff" d="M45.512,44.281A3.627,3.627,0,0,0,42.143,42H22v.576A3.424,3.424,0,0,0,25.424,46H46.2Z" opacity=".4"></path>
  <path d="M60.2,48.4A7.04,7.04,0,0,0,56,47H47.677l-1.236-3.091A4.632,4.632,0,0,0,42.144,41H40.886a21,21,0,1,0-17.772,0H21.856a4.632,4.632,0,0,0-4.3,2.909L16.323,47H8a7,7,0,0,0-7,7v8a1,1,0,0,0,1,1H62a1,1,0,0,0,1-1V54A7.034,7.034,0,0,0,60.2,48.4ZM13,22A19,19,0,1,1,32,41,19.021,19.021,0,0,1,13,22Zm6.417,22.652A2.629,2.629,0,0,1,21.856,43H42.144a2.629,2.629,0,0,1,2.439,1.652L45.523,47H18.477ZM3,59H9v2H3Zm42,2H38V59h7Zm2-2h6v2H47ZM36,61H28V59h8ZM26,61H19V59h7Zm-9,0H11V59h6Zm38,0V59h6v2Zm6-4H55V53H53v4H47V53H45v4H38V53H36v4H28V53H26v4H19V53H17v4H11V53H9v4H3V54a5,5,0,0,1,5-5H56a5,5,0,0,1,5,5Z"></path>
  <path d="M43.015 17.951a3 3 0 10-3-3A3 3 0 0043.015 17.951zm0-4a1 1 0 11-1 1A1 1 0 0143.015 13.951zM46.2 20.884a3 3 0 00-5.165 1.849 12.6 12.6 0 01-4.915 8.89 2.962 2.962 0 00-1.1 2.335A3.051 3.051 0 0038.049 37a2.982 2.982 0 001.445-.376c5.982-3.3 7.266-9.858 7.5-13.474A3 3 0 0046.2 20.884zM38.528 34.875a.994.994 0 01-1-.021 1.033 1.033 0 01-.515-.9.985.985 0 01.347-.771 14.586 14.586 0 005.662-10.295 1 1 0 01.987-.941.98.98 0 01.725.3 1.015 1.015 0 01.262.77C44.791 26.23 43.675 32.035 38.528 34.875z"></path>
</svg>
