<svg xmlns="http://www.w3.org/2000/svg" viewBox="0 0 48 48" id="museum">
  <rect width="30" height="18" x="9" y="17" fill="#c98a5b"></rect>
  <rect width="30" height="3" x="9" y="32" fill="#a86d45"></rect>
  <rect width="4" height="14" x="7" y="21" fill="#f3d19f"></rect>
  <rect width="4" height="3" x="7" y="32" fill="#e5b37c"></rect>
  <path fill="#e5b37c" d="M6,17h6v3c0,.552-.448,1-1,1h-4c-.552,0-1-.448-1-1v-3Z"></path>
  <rect width="4" height="14" x="17" y="21" fill="#f3d19f"></rect>
  <rect width="4" height="3" x="17" y="32" fill="#e5b37c"></rect>
  <path fill="#e5b37c" d="M16,17h6v3c0,.552-.448,1-1,1h-4c-.552,0-1-.448-1-1v-3Z"></path>
  <rect width="4" height="14" x="27" y="21" fill="#f3d19f"></rect>
  <rect width="4" height="3" x="27" y="32" fill="#e5b37c"></rect>
  <path fill="#e5b37c" d="M26,17h6v3c0,.552-.448,1-1,1h-4c-.552,0-1-.448-1-1v-3Z"></path>
  <rect width="4" height="14" x="37" y="21" fill="#f3d19f"></rect>
  <rect width="4" height="3" x="37" y="32" fill="#e5b37c"></rect>
  <path fill="#e5b37c" d="M36,17h6v3c0,.552-.448,1-1,1h-4c-.552,0-1-.448-1-1v-3Z"></path>
  <path fill="#f3d19f" d="M41,35H7c-.552,0-1,.448-1,1v3h36v-3c0-.552-.448-1-1-1Z"></path>
  <rect width="40" height="4" x="4" y="39" fill="#f3d19f" rx="1" ry="1"></rect>
  <path fill="#f3d19f" d="M4,16v-2.264c0-.407.244-.775.62-.933l17.831-7.491c.991-.416,2.108-.416,3.099,0l17.835,7.493c.373.157.615.522.615.926v2.26c0,.557-.451,1.008-1.008,1.008H5c-.552,0-1-.448-1-1Z"></path>
  <path fill="#e5b37c" d="M42.5,14H5.5c-.583,0-1.083-.336-1.331-.823-.108.162-.169.356-.169.559v2.264c0,.552.448,1,1,1h37.992c.557,0,1.008-.451,1.008-1.008v-2.26c0-.202-.061-.394-.168-.556-.248.487-.748.824-1.332.824Z"></path>
  <circle cx="24" cy="11.5" r="2" fill="#c98a5b"></circle>
  <path fill="#08105e" d="M43,20v-2.001c1.103-.005,2-.903,2-2.007v-2.263c0-.81-.482-1.535-1.228-1.848l-17.836-7.493c-1.23-.517-2.643-.517-3.873,0L4.233,11.878c-.749.314-1.233,1.042-1.233,1.855v2.267c0,1.103.897,2,2,2v2c0,.735.406,1.373,1,1.721v12.558c-.595.347-1,.985-1,1.722v2c-1.103,0-2,.897-2,2v2c0,1.103.897,2,2,2h38c1.103,0,2-.897,2-2v-2c0-1.103-.897-2-2-2v-2c0-.737-.405-1.375-1-1.722v-12.558c.594-.348,1-.986,1-1.721ZM38,34v-12h2v12h-2ZM10,22v12h-2v-12h2ZM12,21.721c.594-.348,1-.986,1-1.721v-2h2v2c0,.735.406,1.373,1,1.721v12.279h-4v-12.279ZM21,20h-4v-2h4v2ZM18,22h2v12h-2v-12ZM22,21.721c.594-.348,1-.986,1-1.721v-2h2v2c0,.735.406,1.373,1,1.721v12.279h-4v-12.279ZM31,20h-4v-2h4v2ZM28,22h2v12h-2v-12ZM32,21.721c.594-.348,1-.986,1-1.721v-2h2v2c0,.735.406,1.373,1,1.721v12.279h-4v-12.279ZM37,20v-2h4v2h-4ZM5.008,13.722l17.831-7.491c.369-.155.765-.232,1.161-.232s.792.078,1.161.232l17.839,7.498-.009,2.271H5s.008-2.278.008-2.278ZM11,18v2h-4v-2h4ZM43,42H5v-2h38v2ZM7,38v-2h34v2H7Z"></path>
  <path fill="#08105e" d="M24,8.5c-1.654,0-3,1.346-3,3s1.346,3,3,3,3-1.346,3-3-1.346-3-3-3ZM24,12.5c-.552,0-1-.449-1-1s.448-1,1-1,1,.449,1,1-.448,1-1,1Z"></path>
</svg>
